<?xml version="1.0" encoding="UTF-8" standalone="no"?>
<svg xmlns:xlink="http://www.w3.org/1999/xlink" xmlns="http://www.w3.org/2000/svg" style="isolation:isolate" viewBox="0 0 48 48" width="48pt" height="48pt">
  <g>
    <path
      d=" M 14.487 27.623 C 15.258 27.069 15.977 26.766 16.953 26.766 C 17.981 26.817 18.495 27.119 19.163 27.573 C 19.163 27.573 19.163 27.573 19.214 27.573 C 19.523 27.774 19.985 27.825 20.293 27.573 L 25.329 24.246 C 26.46 23.44 28.053 23.541 29.08 24.448 C 31.29 26.363 37.508 31.554 39.46 33.167 C 39.717 33.368 40.077 33.217 40.077 32.915 C 40.077 32.713 40.077 32.461 40.077 32.26 C 40.128 29.437 38.484 23.994 35.761 21.827 C 34.938 21.172 34.168 20.719 33.859 20.567 C 32.677 19.811 31.393 19.257 30.108 18.803 C 29.954 18.753 29.748 18.652 29.646 18.501 C 29.286 18.098 29.337 17.09 29.697 16.636 C 31.341 14.721 32.164 12.504 31.855 9.984 C 31.547 7.766 29.748 6.002 27.487 5.902 C 26.254 5.851 25.175 6.053 24.199 6.758 C 23.017 7.615 22.4 8.825 22.297 10.286 C 22.092 12.705 22.863 14.772 24.456 16.636 C 24.558 16.788 24.713 16.989 24.764 17.191 C 24.97 17.947 24.61 18.501 23.993 18.854 C 23.222 19.307 21.989 19.862 20.705 20.366 C 20.756 20.315 20.807 20.315 20.807 20.315 C 19.78 20.719 19.112 20.215 18.803 19.66 C 18.598 19.257 18.649 18.703 18.957 18.35 C 20.139 16.838 20.705 15.124 20.396 13.159 C 19.831 9.782 16.131 9.278 14.179 10.689 C 13.099 11.496 12.637 12.605 12.637 13.915 C 12.586 15.628 13.151 17.191 14.281 18.501 C 14.538 18.803 14.641 19.106 14.692 19.509 C 14.744 19.963 14.487 20.315 14.076 20.467 C 13.973 20.517 13.922 20.517 13.819 20.567 C 9.245 22.432 8.423 26.666 8.218 27.623 C 8.064 28.631 8.012 29.992 8.012 31.504 C 8.012 31.806 8.372 31.957 8.577 31.806 L 14.487 27.623 Z "
      fill="rgb(0,176,190)"/>
    <g>
      <path
        d=" M 26.152 35.535 L 24.918 35.535 C 24.661 35.535 24.404 35.736 24.404 36.039 L 24.404 37.248 C 24.404 37.5 24.61 37.752 24.918 37.752 L 26.152 37.752 C 26.408 37.752 26.665 37.551 26.665 37.248 L 26.665 36.039 C 26.665 35.736 26.408 35.535 26.152 35.535 Z "
        fill="rgb(147,149,152)"/>
      <path
        d=" M 28.874 35.535 L 27.641 35.535 C 27.384 35.535 27.127 35.736 27.127 36.039 L 27.127 37.248 C 27.127 37.5 27.333 37.752 27.641 37.752 L 28.874 37.752 C 29.131 37.752 29.388 37.551 29.388 37.248 L 29.388 36.039 C 29.388 35.736 29.183 35.535 28.874 35.535 Z "
        fill="rgb(147,149,152)"/>
      <path
        d=" M 26.152 38.308 L 24.918 38.308 C 24.661 38.308 24.404 38.51 24.404 38.812 L 24.404 40.022 C 24.404 40.274 24.61 40.526 24.918 40.526 L 26.152 40.526 C 26.408 40.526 26.665 40.324 26.665 40.022 L 26.665 38.812 C 26.665 38.51 26.408 38.308 26.152 38.308 Z "
        fill="rgb(147,149,152)"/>
      <path
        d=" M 28.874 38.308 L 27.641 38.308 C 27.384 38.308 27.127 38.51 27.127 38.812 L 27.127 40.022 C 27.127 40.274 27.333 40.526 27.641 40.526 L 28.874 40.526 C 29.131 40.526 29.388 40.324 29.388 40.022 L 29.388 38.812 C 29.388 38.51 29.183 38.308 28.874 38.308 Z "
        fill="rgb(147,149,152)"/>
      <path
        d=" M 41.206 36.594 L 41.155 36.543 L 28.257 26.01 C 27.949 25.758 27.486 25.607 27.024 25.607 C 26.972 25.607 26.921 25.607 26.921 25.607 C 26.407 25.607 26.099 25.809 25.585 26.111 L 20.241 29.79 C 19.932 29.992 19.521 29.992 19.213 29.79 L 18.031 28.933 C 17.723 28.681 17.26 28.53 16.798 28.53 C 16.747 28.53 16.695 28.53 16.695 28.53 C 16.181 28.53 15.308 29.085 15.308 29.135 L 7.24 34.88 C 6.572 35.334 6.007 36.039 6.058 36.846 C 6.11 37.551 6.058 38.156 6.058 38.66 C 6.058 38.862 6.161 39.063 6.315 39.215 C 6.521 39.366 6.829 39.366 7.086 39.215 L 7.446 38.963 C 7.651 38.862 7.857 38.963 7.857 39.164 L 7.857 41.583 C 7.857 42.994 10.066 41.23 11.608 40.021 L 24.403 31.151 C 25.996 30.143 27.537 30.042 29.696 31.856 C 31.032 32.965 32.316 33.973 33.858 35.183 C 35.091 36.14 36.222 37.047 37.044 37.703 C 38.226 38.66 40.641 40.626 41.36 40.626 C 41.823 40.626 41.926 39.769 41.926 39.315 C 41.926 37.35 42.131 37.4 41.206 36.594 Z "
        fill="rgb(147,149,152)"/>
    </g>
  </g>
</svg>
