<svg id="Layer_1" data-name="Layer 1" xmlns="http://www.w3.org/2000/svg" viewBox="0 0 26 27.33">
  <defs>
    <style>.cls-1{fill:#9e9e9e;}</style>
  </defs>
  <path class="cls-1" d="M28.9,27A2.85,2.85,0,0,1,29,28.19c0,.49,0,1,0,1.47H3.06a6.05,6.05,0,0,1,0-1.36c0-.87,0-1.62,1-2s1.77-.81,2.65-1.22,2-.93,3-1.35a1.81,1.81,0,0,0,.42-.26,3.29,3.29,0,0,0,1-1.63,9,9,0,0,0,.39-2.41,1.11,1.11,0,0,0-.23-.78,4.49,4.49,0,0,1-.46-.79,5.52,5.52,0,0,1-.5-1.9c0-.15,0-.27-.26-.26a.37.37,0,0,1-.22-.11,1.21,1.21,0,0,1-.4-.59A11.51,11.51,0,0,1,9,13.12a2,2,0,0,1,0-1,.49.49,0,0,1,.46-.4c.16,0,.2-.1.2-.24-.07-.86-.13-1.72-.13-2.59,0-.18-.06-.27-.26-.29a.39.39,0,0,1-.38-.37A3.9,3.9,0,0,1,8.94,7a5.15,5.15,0,0,1,2.14-3.25,7.63,7.63,0,0,1,4.19-1.4,8.41,8.41,0,0,1,3.15.44,5.73,5.73,0,0,1,1.76.85.41.41,0,0,0,.26.06,2.17,2.17,0,0,1,2,1.09A4.89,4.89,0,0,1,23,7a16.77,16.77,0,0,1,0,2c0,.41-.08.82-.11,1.23s-.06.79-.1,1.18c0,.14,0,.21.22.23a.74.74,0,0,1,.66.59,3.31,3.31,0,0,1-.06,1.2A5.54,5.54,0,0,1,23,15.3a.71.71,0,0,1-.47.39.29.29,0,0,0-.26.26,8.11,8.11,0,0,1-.51,1.63,2.66,2.66,0,0,1-.86,1.32.26.26,0,0,0-.1.26c0,.29,0,.57,0,.86a7.32,7.32,0,0,0,.52,2.33,2.23,2.23,0,0,0,1,1.23c.72.37,1.43.74,2.17,1.08,1.08.49,2.21.89,3.28,1.4l.2.09a1.84,1.84,0,0,1,.88.82Z" transform="translate(-3 -2.33)"/>
</svg>
